<svg xmlns="http://www.w3.org/2000/svg" width="59" height="59" viewBox="0 0 59 59"><defs><style>.a{fill:#fff;stroke:#ced4da;}.b{fill:#fbbd00;}.c{fill:#0f9d58;}.d{fill:#31aa52;}.e{fill:#3c79e6;}.f{fill:#cf2d48;}.g{fill:#eb4132;}.h{stroke:none;}.i{fill:none;}</style></defs><g transform="translate(-0.429)"><g transform="translate(0 0)"><g class="a" transform="translate(0.429)"><rect class="h" width="59" height="59" rx="29.5"/><rect class="i" x="0.5" y="0.5" width="58" height="58" rx="29"/></g></g><g transform="translate(19.314 19.314)"><path class="b" d="M4.875,106.544a5.491,5.491,0,0,1,.777-2.823v-3.506H2.146a10.405,10.405,0,0,0,0,12.658H5.652v-3.506A5.491,5.491,0,0,1,4.875,106.544Z" transform="translate(0 -96.144)"/><path class="c" d="M198.438,373.734,196,376.172l2.438,2.438a10.321,10.321,0,0,0,6.329-2.146v-3.5h-3.5A5.524,5.524,0,0,1,198.438,373.734Z" transform="translate(-188.037 -357.809)"/><path class="d" d="M56.329,325.477l-3.506,3.506a10.563,10.563,0,0,0,.9,1.025,10.332,10.332,0,0,0,7.354,3.046v-4.875A5.527,5.527,0,0,1,56.329,325.477Z" transform="translate(-50.677 -312.254)"/><path class="e" d="M266.4,199.708a10.492,10.492,0,0,0-.17-1.884l-.091-.5H256V202.2h4.934a5.5,5.5,0,0,1-2.108,2.26l3.5,3.5a10.57,10.57,0,0,0,1.025-.9A10.332,10.332,0,0,0,266.4,199.708Z" transform="translate(-245.6 -189.308)"/><path class="f" d="M202.344,6.493l.431.431,3.447-3.447-.431-.431A10.332,10.332,0,0,0,198.437,0L196,2.437l2.438,2.438A5.489,5.489,0,0,1,202.344,6.493Z" transform="translate(-188.037 0)"/><path class="g" d="M61.076,4.875V0a10.332,10.332,0,0,0-7.354,3.046,10.557,10.557,0,0,0-.9,1.025l3.506,3.506a5.527,5.527,0,0,1,4.748-2.7Z" transform="translate(-50.676 0)"/></g></g></svg>